<?xml version="1.0" encoding="UTF-8" standalone="no"?>
<!-- Generator: Adobe Illustrator 19.0.0, SVG Export Plug-In . SVG Version: 6.00 Build 0)  -->

<svg
   xmlns:dc="http://purl.org/dc/elements/1.1/"
   xmlns:cc="http://creativecommons.org/ns#"
   xmlns:rdf="http://www.w3.org/1999/02/22-rdf-syntax-ns#"
   xmlns:svg="http://www.w3.org/2000/svg"
   xmlns="http://www.w3.org/2000/svg"
   xmlns:sodipodi="http://sodipodi.sourceforge.net/DTD/sodipodi-0.dtd"
   xmlns:inkscape="http://www.inkscape.org/namespaces/inkscape"
   version="1.1"
   id="Layer_1"
   x="0px"
   y="0px"
   viewBox="0 0 14.769219 14.769219"
   xml:space="preserve"
   width="16"
   height="16"
   sodipodi:docname="si.svg"
   inkscape:version="0.92.3 (2405546, 2018-03-11)"><metadata
   id="metadata49"><rdf:RDF><cc:Work
       rdf:about=""><dc:format>image/svg+xml</dc:format><dc:type
         rdf:resource="http://purl.org/dc/dcmitype/StillImage" /><dc:title></dc:title></cc:Work></rdf:RDF></metadata><defs
   id="defs47" /><sodipodi:namedview
   pagecolor="#ffffff"
   bordercolor="#666666"
   borderopacity="1"
   objecttolerance="10"
   gridtolerance="10"
   guidetolerance="10"
   inkscape:pageopacity="0"
   inkscape:pageshadow="2"
   inkscape:window-width="1366"
   inkscape:window-height="704"
   id="namedview45"
   showgrid="false"
   inkscape:zoom="20.85965"
   inkscape:cx="4.6492577"
   inkscape:cy="7.8609998"
   inkscape:window-x="0"
   inkscape:window-y="27"
   inkscape:window-maximized="1"
   inkscape:current-layer="Layer_1" />

<g
   id="g862"
   transform="matrix(0.03125,0,0,0.03125,1.25e-7,-1.55e-5)"><g
     style="fill:#28aac1;fill-opacity:1"
     id="g6">
	<g
   style="fill:#28aac1;fill-opacity:1"
   id="g4">
		<path
   style="fill:#28aac1;fill-opacity:1"
   id="path2"
   d="M 19.692,49.231 V 344.616 H 452.923 V 49.231 Z M 256,127.982 h 147.692 v 19.692 H 256 Z m 59.077,49.231 v 19.692 h -29.538 v -19.692 z m -49.231,0 v 19.692 H 147.692 v -19.692 z m -29.538,-29.538 h -39.385 v -19.692 h 39.385 z M 177.231,78.752 h 49.231 v 19.692 h -49.231 z m -108.308,0 h 88.615 V 98.444 H 68.923 Z m 0,49.23 h 108.308 v 19.692 H 68.923 Z m 0,49.231 H 128 v 19.692 H 68.923 Z m 0,49.231 h 88.615 v 19.692 H 68.923 Z m 147.692,88.615 H 68.923 v -19.692 h 147.692 z m 9.847,-68.923 h -49.231 v -19.692 h 49.231 z m 70.961,37.346 -13.923,13.923 -41.424,-41.423 41.424,-41.424 13.922,13.923 -27.5,27.5 z m 21.875,25.385 -18.288,-7.308 39.385,-98.462 18.288,7.308 z m 56.894,-11.462 -13.922,-13.923 27.499,-27.499 -27.499,-27.5 13.922,-13.923 41.424,41.424 z"
   inkscape:connector-curvature="0" />
	</g>
</g><g
     style="fill:#28aac1;fill-opacity:1"
     id="g12">
	<g
   style="fill:#28aac1;fill-opacity:1"
   id="g10">
		<path
   style="fill:#28aac1;fill-opacity:1"
   id="path8"
   d="m 0,364.308 v 22.646 l 24.221,36.431 h 424.172 l 24.222,-36.431 v -22.646 z m 206.769,39.367 h -19.692 v -19.692 h 19.692 z m 39.385,0 h -19.692 v -19.692 h 19.692 z m 39.384,0 h -19.692 v -19.692 h 19.692 z"
   inkscape:connector-curvature="0" />
	</g>
</g></g>
<g
   id="g14"
   transform="translate(0,-457.84579)">
</g>
<g
   id="g16"
   transform="translate(0,-457.84579)">
</g>
<g
   id="g18"
   transform="translate(0,-457.84579)">
</g>
<g
   id="g20"
   transform="translate(0,-457.84579)">
</g>
<g
   id="g22"
   transform="translate(0,-457.84579)">
</g>
<g
   id="g24"
   transform="translate(0,-457.84579)">
</g>
<g
   id="g26"
   transform="translate(0,-457.84579)">
</g>
<g
   id="g28"
   transform="translate(0,-457.84579)">
</g>
<g
   id="g30"
   transform="translate(0,-457.84579)">
</g>
<g
   id="g32"
   transform="translate(0,-457.84579)">
</g>
<g
   id="g34"
   transform="translate(0,-457.84579)">
</g>
<g
   id="g36"
   transform="translate(0,-457.84579)">
</g>
<g
   id="g38"
   transform="translate(0,-457.84579)">
</g>
<g
   id="g40"
   transform="translate(0,-457.84579)">
</g>
<g
   id="g42"
   transform="translate(0,-457.84579)">
</g>
</svg>